<svg width="40" height="40" viewBox="0 0 40 40" fill="none" xmlns="http://www.w3.org/2000/svg">
<path d="M35.4064 15.9932C35.4064 15.5529 35.7634 15.1959 36.2037 15.1959C36.644 15.1959 37 15.5529 37 15.9932V21.8356C37 23.0367 36.5108 24.1276 35.7197 24.9176C34.9297 25.7076 33.8389 26.1979 32.6377 26.1979H18.1644C16.9622 26.1979 15.8714 25.7086 15.0824 24.9176C14.2924 24.1276 13.8021 23.0367 13.8021 21.8356V7.36228C13.8021 6.16008 14.2914 5.06925 15.0824 4.28027C15.8724 3.49025 16.9633 3 18.1644 3H24.0068C24.4471 3 24.8041 3.35702 24.8041 3.79627C24.8041 4.23655 24.4471 4.59357 24.0068 4.59357H18.1644C17.4025 4.59357 16.7103 4.90479 16.2086 5.40649C15.7069 5.90819 15.3957 6.60037 15.3957 7.36228V21.8356C15.3957 22.5975 15.7069 23.2897 16.2086 23.7914C16.7103 24.2931 17.4025 24.6043 18.1644 24.6043H32.6377C33.3996 24.6043 34.0918 24.2931 34.5935 23.7914C35.0952 23.2897 35.4064 22.5975 35.4064 21.8356V15.9932ZM24.6043 29.0165C24.6043 28.5762 24.9613 28.2203 25.4016 28.2203C25.8419 28.2203 26.1979 28.5773 26.1979 29.0165V32.6377C26.1979 33.8389 25.7086 34.9297 24.9176 35.7197C24.1276 36.5098 23.0367 37 21.8356 37H7.36228C6.16112 37 5.07029 36.5098 4.28027 35.7197C3.49025 34.9297 3 33.8389 3 32.6377V18.1644C3 16.9622 3.49025 15.8724 4.28027 15.0824C5.07029 14.2924 6.16112 13.8021 7.36228 13.8021H10.9835C11.4238 13.8021 11.7808 14.1592 11.7808 14.5994C11.7808 15.0387 11.4238 15.3957 10.9835 15.3957H7.36228C6.60037 15.3957 5.90819 15.7069 5.40649 16.2086C4.90479 16.7103 4.59357 17.4025 4.59357 18.1644V32.6377C4.59357 33.3996 4.90479 34.0918 5.40649 34.5935C5.90819 35.0952 6.60037 35.4064 7.36228 35.4064H21.8356C22.5975 35.4064 23.2897 35.0952 23.7914 34.5935C24.2931 34.0918 24.6043 33.3996 24.6043 32.6377V29.0165ZM35.4064 5.72083L26.0636 15.0647C25.7524 15.3759 25.2475 15.3759 24.9363 15.0647C24.6251 14.7535 24.6251 14.2497 24.9363 13.9375L34.2802 4.59461H29.1154C28.6751 4.59461 28.3181 4.23759 28.3181 3.79731C28.3181 3.35702 28.6751 3.00104 29.1154 3.00104H36.2037C36.644 3.00104 37 3.35806 37 3.79731V10.8856C37 11.3259 36.643 11.6829 36.2037 11.6829C35.7634 11.6829 35.4064 11.3259 35.4064 10.8856V5.72083Z" fill="black" stroke="black"/>
</svg>
