<svg width="40" height="40" viewBox="0 0 40 40" fill="none" xmlns="http://www.w3.org/2000/svg">
<g clip-path="url(#clip0_1231_1557)">
<path d="M38.8666 32.243L32.1238 19.9151C32.9772 18.1834 33.489 16.1994 33.489 14.1313C33.4906 6.86819 27.5583 1 20.2185 1C12.8787 1 6.94628 6.86777 6.94628 14.1313C6.94628 16.0741 7.37301 17.9312 8.14147 19.5769L1.14393 32.243C1.01558 32.497 0.973902 32.7922 1.01558 33.0874C1.14393 33.7207 1.78403 34.1 2.42413 33.9747L8.39837 32.624L10.447 38.2397C10.6171 38.6619 11.0021 38.9571 11.4705 39H11.5555C11.9822 39 12.409 38.746 12.6223 38.3667L18.6815 27.1766C19.1932 27.2195 19.705 27.2607 20.2184 27.2607C20.5601 27.2607 20.9019 27.2608 21.2002 27.2179L27.3878 38.3632C27.6012 38.7425 27.9846 38.9536 28.4113 38.9536H28.4963C28.9664 38.9107 29.3498 38.6155 29.5198 38.1933L31.5685 32.5776L37.5427 33.9283C37.8411 34.0124 38.0978 33.9712 38.3528 33.8013C38.9512 33.5523 39.1649 32.8334 38.8666 32.243ZM11.7691 34.9444L10.2756 30.8494C10.0622 30.3002 9.46545 29.9621 8.91036 30.0891L4.5146 31.1017L9.59185 21.9813C11.2554 24.1764 13.6024 25.8652 16.2911 26.7095L11.7691 34.9444ZM9.3804 14.1311C9.3804 8.22025 14.2443 3.40799 20.2185 3.40799C26.1928 3.40799 31.0567 8.22025 31.0567 14.1311C31.0567 20.0419 26.1928 24.8542 20.2185 24.8542C14.2443 24.8542 9.3804 20.0419 9.3804 14.1311ZM31.1002 30.0891C30.5034 29.9621 29.905 30.2573 29.735 30.8494L28.2414 34.9873L23.7172 26.7974C26.5343 26.0371 28.9664 24.3912 30.7148 22.1963L35.5786 31.0625L31.1002 30.0891Z" fill="black" stroke="black" stroke-width="0.4"/>
</g>
<defs>
<clipPath id="clip0_1231_1557">
<rect width="40" height="40" fill="white"/>
</clipPath>
</defs>
</svg>
