<svg width="23" height="23" viewBox="0 0 23 23" fill="none" xmlns="http://www.w3.org/2000/svg">
<g clip-path="url(#clip0_1231_1672)">
<path d="M0 0H23V23H0V0Z" fill="#012169"/>
<path d="M23 0V2.875L14.4648 11.5L23 19.9004V23H19.9902L11.4102 14.5547L3.05469 23H0V19.9453L8.35547 11.5449L0 3.32422V0H2.78516L11.4102 8.44531L19.7656 0H23Z" fill="white"/>
<path d="M8.26562 14.5547L8.75977 16.082L1.88672 23H0V22.8652L8.26562 14.5547ZM13.8359 14.0156L16.2617 14.375L23 20.9785V23L13.8359 14.0156ZM23 0L14.375 8.80469L14.1953 6.82812L20.9336 0H23ZM0 0.0449219L8.66992 8.53516L6.01953 8.17578L0 2.20117V0.0449219Z" fill="#C8102E"/>
<path d="M7.90625 0V23H15.0938V0H7.90625ZM0 7.90625V15.0938H23V7.90625H0Z" fill="white"/>
<path d="M0 9.34375V13.6562H23V9.34375H0ZM9.34375 0V23H13.6562V0H9.34375Z" fill="#C8102E"/>
</g>
<defs>
<clipPath id="clip0_1231_1672">
<rect width="23" height="23" rx="11.5" fill="white"/>
</clipPath>
</defs>
</svg>
