<svg width="201" height="46" viewBox="0 0 201 46" fill="none" xmlns="http://www.w3.org/2000/svg">
<path fill-rule="evenodd" clip-rule="evenodd" d="M0 22.5864C0 10.1122 10.1138 0 22.5893 0C35.0649 0 45.1786 10.1122 45.1786 22.5864C45.1786 35.0607 35.0649 45.1728 22.5893 45.1728C10.1138 45.1728 0 35.0607 0 22.5864ZM22.5893 2.24579C11.3538 2.24579 2.24579 11.3528 2.24579 22.5864C2.24579 33.8201 11.3538 42.927 22.5893 42.927C33.8248 42.927 42.9328 33.8201 42.9328 22.5864C42.9328 11.3528 33.8248 2.24579 22.5893 2.24579Z" fill="white"/>
<path fill-rule="evenodd" clip-rule="evenodd" d="M12.9819 12.4576C12.9819 9.68341 15.231 7.43481 18.0053 7.43481C20.7794 7.43481 23.0286 9.68339 23.0286 12.4576C23.0286 15.2317 20.7794 17.4804 18.0053 17.4804C15.231 17.4804 12.9819 15.2317 12.9819 12.4576ZM18.0053 9.68061C16.4711 9.68061 15.2277 10.924 15.2277 12.4576C15.2277 13.9911 16.4711 15.2346 18.0053 15.2346C19.5394 15.2346 20.7828 13.9911 20.7828 12.4576C20.7828 10.924 19.5394 9.68061 18.0053 9.68061Z" fill="white"/>
<path fill-rule="evenodd" clip-rule="evenodd" d="M10.7842 31.8548C10.7842 29.0806 13.0334 26.832 15.8075 26.832C18.5816 26.832 20.8308 29.0806 20.8308 31.8548C20.8308 34.6289 18.5817 36.8776 15.8075 36.8776C13.0334 36.8776 10.7842 34.6289 10.7842 31.8548ZM15.8075 29.0778C14.2734 29.0778 13.03 30.3212 13.03 31.8548C13.03 33.3883 14.2734 34.6318 15.8075 34.6318C17.3416 34.6318 18.5851 33.3883 18.5851 31.8548C18.5851 30.3212 17.3416 29.0778 15.8075 29.0778Z" fill="white"/>
<path fill-rule="evenodd" clip-rule="evenodd" d="M29.2959 28.6371C29.2959 25.8629 31.545 23.6143 34.3192 23.6143C37.0934 23.6143 39.3425 25.863 39.3425 28.6371C39.3425 31.4112 37.0934 33.6599 34.3192 33.6599C31.545 33.6599 29.2959 31.4112 29.2959 28.6371ZM34.3192 25.8601C32.7851 25.8601 31.5417 27.1035 31.5417 28.6371C31.5417 30.1707 32.7851 31.4141 34.3192 31.4141C35.8533 31.4141 37.0967 30.1707 37.0967 28.6371C37.0967 27.1035 35.8533 25.8601 34.3192 25.8601Z" fill="white"/>
<path fill-rule="evenodd" clip-rule="evenodd" d="M15.5165 9.2727L13.0659 3.28721L15.1443 2.43628L17.5949 8.42177L15.5165 9.2727Z" fill="white"/>
<path fill-rule="evenodd" clip-rule="evenodd" d="M19.3672 8.84752L23.5669 0.70166L25.563 1.73079L21.3633 9.87665L19.3672 8.84752Z" fill="white"/>
<path fill-rule="evenodd" clip-rule="evenodd" d="M21.1758 10.0752C26.3274 7.6642 31.9149 6.32389 37.5998 6.1355L37.6742 8.38006C32.293 8.55839 27.0041 9.82709 22.1277 12.1092L21.1758 10.0752Z" fill="white"/>
<path fill-rule="evenodd" clip-rule="evenodd" d="M4.71094 9.43364C4.71088 9.43338 4.71084 9.43318 5.80984 9.20275C6.90884 8.97233 6.90882 8.97222 6.90881 8.97217L6.91037 8.97954L6.91598 9.00583L6.93941 9.11368C6.96045 9.20952 6.99231 9.35234 7.0349 9.53708C7.12008 9.9066 7.24811 10.4434 7.41827 11.107C7.75885 12.4351 8.26693 14.2659 8.93648 16.276C10.2916 20.3443 12.2517 24.9688 14.7192 27.7296L13.0448 29.2262C10.2462 26.095 8.1702 21.0819 6.80578 16.9857C6.11555 14.9135 5.59299 13.0302 5.24287 11.6649C5.06768 10.9817 4.93534 10.4269 4.8465 10.0416C4.80207 9.84884 4.7685 9.69838 4.74587 9.5953C4.73455 9.54376 4.72597 9.50405 4.72013 9.47682L4.71342 9.44541L4.71094 9.43364Z" fill="white"/>
<path fill-rule="evenodd" clip-rule="evenodd" d="M16.1382 28.314C15.8823 24.1945 16.272 20.0602 17.2934 16.061L19.4693 16.6168C18.5059 20.3891 18.1383 24.2889 18.3797 28.1748L16.1382 28.314Z" fill="white"/>
<path fill-rule="evenodd" clip-rule="evenodd" d="M1.49658 29.5778C4.77969 23.6805 9.12013 18.4378 14.301 14.1113L15.7405 15.8351C10.7711 19.985 6.60785 25.0137 3.45879 30.6702L1.49658 29.5778Z" fill="white"/>
<path fill-rule="evenodd" clip-rule="evenodd" d="M5.20068 34.7166L11.6733 32.0325L12.5336 34.107L6.06094 36.7911L5.20068 34.7166Z" fill="white"/>
<path fill-rule="evenodd" clip-rule="evenodd" d="M30.7199 27.1691C26.0835 24.5001 22.1906 20.711 19.3975 16.1487L21.3128 14.9761C23.9098 19.2181 27.5294 22.7412 31.8403 25.2228L30.7199 27.1691Z" fill="white"/>
<path fill-rule="evenodd" clip-rule="evenodd" d="M35.3846 7.41357L36.5073 7.43511C37.63 7.4567 37.63 7.45678 37.63 7.45692L37.6271 7.59711C37.6251 7.68836 37.6221 7.8225 37.618 7.99488C37.6097 8.33964 37.5967 8.83748 37.5782 9.45117C37.5413 10.6783 37.482 12.3701 37.3927 14.2285C37.2154 17.9208 36.9164 22.3519 36.4244 25.0767L34.2144 24.6776C34.6765 22.1183 34.9714 17.8285 35.1495 14.1207C35.238 12.2791 35.2968 10.6012 35.3335 9.38354C35.3518 8.77486 35.3646 8.28157 35.3728 7.9408C35.3769 7.77042 35.3799 7.63819 35.3818 7.54876L35.3846 7.41357Z" fill="white"/>
<path fill-rule="evenodd" clip-rule="evenodd" d="M38.2361 28.9739L42.5481 30.1242L41.9692 32.2941L37.6572 31.1438L38.2361 28.9739Z" fill="white"/>
<path fill-rule="evenodd" clip-rule="evenodd" d="M32.6903 32.259C32.6902 32.2592 32.6902 32.2594 33.7851 32.5086C34.88 32.7578 34.8799 32.758 34.8799 32.7582L34.8793 32.7607L34.878 32.7663L34.8736 32.7853L34.8575 32.8532C34.8434 32.9116 34.8227 32.9956 34.7954 33.1027C34.7406 33.3168 34.6589 33.6234 34.5493 34.0011C34.3303 34.7556 33.9983 35.7992 33.5449 36.9597C32.6512 39.2473 31.2343 42.1257 29.1823 44.0851L27.6313 42.4609C29.3208 40.8477 30.593 38.3439 31.4531 36.1425C31.8766 35.0584 32.1877 34.0807 32.3925 33.3751C32.4948 33.0228 32.5702 32.7396 32.6196 32.5464C32.6442 32.4499 32.6624 32.3759 32.6742 32.3272L32.687 32.2733L32.6898 32.2612L32.6903 32.259Z" fill="white"/>
<path fill-rule="evenodd" clip-rule="evenodd" d="M19.286 44.2535L16.7231 35.5185L18.8781 34.8862L21.441 43.6212L19.286 44.2535Z" fill="white"/>
<path fill-rule="evenodd" clip-rule="evenodd" d="M18.3403 34.8305C18.3402 34.8304 18.3401 34.8304 19.0704 33.9773L19.8006 33.1243L19.8252 33.1453L19.9001 33.2091C19.9661 33.2652 20.0636 33.3477 20.1884 33.453C20.4382 33.6635 20.7975 33.9645 21.2341 34.3251C22.1083 35.047 23.289 36.005 24.5202 36.9539C25.756 37.9063 27.0232 38.8344 28.0751 39.505C28.6035 39.8419 29.0511 40.0968 29.3979 40.257C29.5714 40.3371 29.6963 40.3826 29.7774 40.4049C29.8068 40.413 29.8242 40.4163 29.8311 40.4174C29.8203 40.4163 29.7848 40.414 29.731 40.4213L30.035 42.6465C29.7111 42.6907 29.406 42.632 29.1816 42.5702C28.9414 42.5041 28.6952 42.4062 28.456 42.2957C27.9775 42.0746 27.4333 41.7593 26.8677 41.3987C25.7318 40.6744 24.4028 39.6987 23.1493 38.7327C21.8914 37.7632 20.6899 36.7882 19.8041 36.0567C19.3608 35.6907 18.9957 35.3848 18.7411 35.1702C18.6137 35.0629 18.514 34.9783 18.4458 34.9204L18.3678 34.854L18.3403 34.8305ZM29.8346 40.4179C29.8346 40.4179 29.8335 40.4178 29.8311 40.4174Z" fill="white"/>
<path fill-rule="evenodd" clip-rule="evenodd" d="M19.315 29.977C19.3147 29.9772 19.3145 29.9774 18.586 29.1229C17.8576 28.2683 17.8575 28.2684 17.8574 28.2684L17.8588 28.2672L17.865 28.262L17.8918 28.2389C17.9159 28.2181 17.9526 28.1863 18.0011 28.144C18.0981 28.0594 18.2423 27.9325 18.428 27.7661C18.7995 27.4333 19.3369 26.943 19.9949 26.3173C21.3117 25.0654 23.1077 23.2753 25.0223 21.1256C28.8746 16.8001 33.1118 11.1228 34.9738 5.50122L37.1057 6.20738C35.0955 12.2762 30.6057 18.2331 26.6993 22.6193C24.7345 24.8255 22.8931 26.6606 21.5424 27.9449C20.8666 28.5874 20.3128 29.0929 19.9264 29.4389C19.7332 29.612 19.5818 29.7453 19.4779 29.8359C19.426 29.8812 19.386 29.9159 19.3585 29.9396L19.3268 29.9669L19.3182 29.9742L19.315 29.977Z" fill="white"/>
<path d="M111.918 29.8713V14.7393H114.238L119.775 22.5672C120.869 24.103 121.857 25.7123 122.73 27.3836H122.777C122.609 25.3993 122.54 23.4079 122.572 21.4168V14.7393H124.499V29.8713H122.394L116.941 22.0714C115.762 20.3226 114.621 18.5924 113.789 17.0306H113.714C113.826 18.901 113.854 20.7061 113.854 22.9599V29.8433L111.918 29.8713Z" fill="white"/>
<path d="M129.686 24.8681C129.733 27.3185 131.557 28.553 133.783 28.553C134.95 28.5864 136.113 28.3795 137.197 27.9451L137.561 29.3946C136.284 29.9198 134.912 30.1746 133.53 30.1428C129.948 30.1428 127.722 27.889 127.722 24.6531C127.722 21.4172 129.808 18.7424 133.334 18.7424C137.318 18.7424 138.254 22.1092 138.254 23.961C138.264 24.2745 138.239 24.5883 138.179 24.8962L129.686 24.8681ZM136.233 23.3999C136.268 22.9797 136.213 22.557 136.073 22.1596C135.931 21.7623 135.707 21.3996 135.415 21.0953C135.124 20.7911 134.77 20.5524 134.379 20.395C133.988 20.2377 133.568 20.1653 133.146 20.1827C132.271 20.1871 131.43 20.5203 130.789 21.1162C130.147 21.7121 129.754 22.5273 129.686 23.3999H136.233Z" fill="white"/>
<path d="M143.894 15.8152V19.0137H146.991V20.5755H143.894V26.1869C143.894 27.5149 144.25 28.4127 145.513 28.4127C145.949 28.4246 146.385 28.3678 146.804 28.2444L146.897 29.7969C146.279 30.0172 145.626 30.1218 144.971 30.1055C144.546 30.1218 144.124 30.0467 143.732 29.8853C143.34 29.7239 142.987 29.48 142.697 29.1703C142.091 28.3416 141.806 27.3218 141.893 26.2991V20.5007H140.097V19.0137H141.893V16.3202L143.894 15.8152Z" fill="white"/>
<path d="M150.929 19.0132L152.528 24.6246C152.874 25.8591 153.164 26.972 153.408 28.0943C153.67 27.0094 154.062 25.8591 154.474 24.634L156.428 19.0225H158.197L160.067 24.5311C160.497 25.8404 160.843 27.0001 161.114 28.0663H161.162C161.376 26.9814 161.695 25.831 162.097 24.5311L163.818 19.0225H165.838L162.097 29.8805H160.17L158.393 24.7274C157.959 23.5217 157.596 22.2913 157.308 21.0426H157.261C156.968 22.293 156.595 23.5236 156.148 24.7274L154.278 29.8805H152.35L148.871 19.0225L150.929 19.0132Z" fill="white"/>
<path d="M179.263 24.3072C179.263 28.2725 176.195 30.143 173.267 30.143C172.511 30.1831 171.756 30.0668 171.048 29.8012C170.34 29.5357 169.694 29.1266 169.151 28.5998C168.609 28.0729 168.181 27.4396 167.894 26.7395C167.607 26.0394 167.469 25.2878 167.487 24.5316C167.457 23.7475 167.593 22.966 167.885 22.2375C168.177 21.5091 168.618 20.85 169.18 20.3026C169.743 19.7554 170.414 19.3321 171.15 19.0601C171.886 18.7882 172.671 18.6736 173.454 18.7239C174.211 18.6742 174.97 18.7828 175.682 19.0428C176.394 19.3028 177.044 19.7085 177.591 20.2339C178.137 20.7593 178.568 21.3929 178.856 22.0943C179.144 22.7956 179.283 23.5493 179.263 24.3072ZM169.582 24.4755C169.582 27.0474 171.294 28.6279 173.323 28.6279C175.353 28.6279 177.13 27.1129 177.13 24.4007C177.13 22.5302 175.999 20.2576 173.389 20.2576C170.779 20.2576 169.563 22.2871 169.563 24.4755H169.582Z" fill="white"/>
<path d="M182.478 22.586C182.478 21.1831 182.478 20.0889 182.394 19.0134H184.181L184.256 21.286H184.331C184.536 20.5699 184.964 19.9377 185.553 19.4805C186.141 19.0233 186.859 18.7648 187.604 18.7422C187.809 18.7376 188.014 18.7629 188.212 18.817V20.6875C187.956 20.6387 187.696 20.6168 187.436 20.622C186.731 20.6413 186.057 20.9168 185.541 21.3971C185.024 21.8775 184.7 22.5296 184.63 23.2313C184.57 23.5394 184.542 23.8528 184.546 24.1666V29.8995H182.497L182.478 22.586Z" fill="white"/>
<path d="M193.143 23.9699C193.433 23.6051 193.863 23.1001 194.21 22.726L197.764 18.9851H200.299L195.669 23.4181L201 29.8431H198.438L194.238 24.5965L193.096 25.7655V29.8431H191.058V13.804H193.096L193.143 23.9699Z" fill="white"/>
<path d="M52.8672 14.5806C54.4475 14.3573 56.0414 14.2447 57.6375 14.2439C60.8457 14.2439 63.1467 15.0014 64.6339 16.3949C65.3503 17.0491 65.9156 17.8515 66.2903 18.7463C66.6651 19.641 66.8404 20.6067 66.804 21.5761C66.8248 22.6336 66.6328 23.6845 66.239 24.6661C65.8453 25.6479 65.2581 26.5403 64.5123 27.2903C62.9316 28.768 60.2938 29.7033 56.964 29.7033C55.5962 29.7154 54.2288 29.6561 52.8672 29.5256V14.5806ZM54.9156 27.9263C55.7136 28.0157 56.5168 28.0501 57.3194 28.0292C62.2675 28.0292 64.662 25.3918 64.662 21.6603C64.662 18.1625 62.3891 15.8525 57.7029 15.8525C56.7622 15.8393 55.8224 15.9175 54.8969 16.0863L54.9156 27.9263Z" fill="white" stroke="white"/>
<path d="M70.7592 24.5033C70.7592 26.9536 72.6298 28.1882 74.856 28.1882C76.0237 28.2217 77.1857 28.0147 78.2702 27.5802L78.6348 29.0299C77.3571 29.555 75.9845 29.8098 74.6034 29.778C71.021 29.778 68.7949 27.5242 68.7949 24.2883C68.7949 21.0524 70.8808 18.387 74.4071 18.387C78.3915 18.387 79.327 21.7445 79.327 23.5962C79.3425 23.9099 79.317 24.2242 79.2521 24.5315L70.7592 24.5033ZM77.3066 23.0351C77.3414 22.615 77.2865 22.1921 77.1455 21.7948C77.0045 21.3976 76.7807 21.0347 76.4888 20.7305C76.1969 20.4263 75.8437 20.1876 75.4525 20.0303C75.0614 19.8729 74.6412 19.8005 74.2199 19.8178C73.3462 19.8246 72.5069 20.1588 71.8677 20.7545C71.2286 21.3502 70.8364 22.1641 70.7685 23.0351H77.3066Z" fill="white" stroke="white"/>
<path d="M83.2951 24.5033C83.2951 26.9536 85.1654 28.1882 87.3919 28.1882C88.5592 28.2217 89.721 28.0147 90.8057 27.5802L91.1703 29.0299C89.8925 29.555 88.5205 29.8098 87.1392 29.778C83.557 29.778 81.3306 27.5242 81.3306 24.2883C81.3306 21.0524 83.4164 18.387 86.943 18.387C90.927 18.387 91.8625 21.7445 91.8625 23.5962C91.8725 23.9097 91.8478 24.2234 91.7876 24.5315L83.2951 24.5033ZM89.8423 23.0351C89.8771 22.6141 89.8222 22.1905 89.6809 21.7925C89.5387 21.3946 89.3147 21.0313 89.0211 20.7269C88.7283 20.4225 88.3737 20.184 87.9821 20.0273C87.5896 19.8705 87.1686 19.7992 86.746 19.8178C85.8738 19.8269 85.0372 20.1622 84.3998 20.7577C83.7625 21.3532 83.3716 22.1656 83.3044 23.0351H89.8423Z" fill="white" stroke="white"/>
<path d="M94.7312 22.2215C94.7312 20.9309 94.7312 19.7432 94.6377 18.6302H96.5088L96.6208 20.6409C97.0812 19.9063 97.7301 19.3083 98.5004 18.9087C99.2698 18.5091 100.132 18.3226 100.998 18.3684C103.869 18.3684 106.087 20.6503 106.087 23.8488C106.087 27.7206 103.458 29.7594 100.633 29.7594C99.8878 29.8007 99.1439 29.6504 98.4725 29.323C97.8012 28.9956 97.2249 28.502 96.7985 27.889V33.9679H94.7598L94.7312 22.2215ZM96.7707 24.9243C96.7707 25.3725 96.8634 25.816 97.0418 26.2269C97.221 26.6379 97.4829 27.0075 97.8113 27.3129C98.1396 27.6182 98.5266 27.8527 98.95 28.0017C99.3725 28.1507 99.8214 28.211 100.269 28.1789C102.579 28.1789 104.01 26.5422 104.01 23.961C104.01 21.8193 102.673 19.9676 100.344 19.9676C99.5703 19.9713 98.8194 20.2285 98.206 20.6998C97.5926 21.1711 97.1507 21.8305 96.9483 22.5769C96.8672 22.835 96.8162 23.1018 96.7985 23.3718L96.7707 24.9243Z" fill="white" stroke="white"/>
</svg>
