<svg width="24" height="25" viewBox="0 0 24 25" fill="none" xmlns="http://www.w3.org/2000/svg">
<path d="M2 6.40381L8.91302 10.3208C11.4616 11.7648 12.5384 11.7648 15.087 10.3208L22 6.40381" stroke="black" stroke-width="1.5" stroke-linejoin="round"/>
<path d="M2.01577 13.8794C2.08114 16.945 2.11383 18.4777 3.24496 19.6132C4.37608 20.7486 5.95033 20.7881 9.09883 20.8672C11.0393 20.916 12.9607 20.916 14.9012 20.8672C18.0497 20.7881 19.6239 20.7486 20.7551 19.6132C21.8862 18.4777 21.9189 16.945 21.9842 13.8794C22.0053 12.8937 22.0053 11.9139 21.9842 10.9282C21.9189 7.86267 21.8862 6.3299 20.7551 5.19447C19.6239 4.05904 18.0497 4.01949 14.9012 3.94038C12.9607 3.89162 11.0393 3.89162 9.09882 3.94037C5.95033 4.01947 4.37608 4.05902 3.24495 5.19446C2.11382 6.32989 2.08114 7.86266 2.01576 10.9282C1.99474 11.9139 1.99475 12.8937 2.01577 13.8794Z" stroke="black" stroke-width="1.5" stroke-linejoin="round"/>
</svg>
