<svg width="24" height="25" viewBox="0 0 24 25" fill="none" xmlns="http://www.w3.org/2000/svg">
<path d="M5 9.40381C5 6.10398 5 4.45406 6.02513 3.42894C7.05025 2.40381 8.70017 2.40381 12 2.40381C15.2998 2.40381 16.9497 2.40381 17.9749 3.42894C19 4.45406 19 6.10398 19 9.40381V15.4038C19 18.7036 19 20.3535 17.9749 21.3787C16.9497 22.4038 15.2998 22.4038 12 22.4038C8.70017 22.4038 7.05025 22.4038 6.02513 21.3787C5 20.3535 5 18.7036 5 15.4038V9.40381Z" stroke="black" stroke-width="1.5" stroke-linecap="round"/>
<path d="M11 19.4038H13" stroke="black" stroke-width="1.5" stroke-linecap="round" stroke-linejoin="round"/>
<path d="M9 2.40381L9.089 2.93783C9.28188 4.0951 9.37832 4.67374 9.77519 5.02585C10.1892 5.39315 10.7761 5.40381 12 5.40381C13.2239 5.40381 13.8108 5.39315 14.2248 5.02585C14.6217 4.67374 14.7181 4.0951 14.911 2.93783L15 2.40381" stroke="black" stroke-width="1.5" stroke-linejoin="round"/>
</svg>
