<svg width="40" height="40" viewBox="0 0 40 40" fill="none" xmlns="http://www.w3.org/2000/svg">
<path d="M11.8095 11.4832C11.1653 10.8389 10.1033 10.8389 9.49606 11.4832L2.4832 18.4976C1.83893 19.1418 1.83893 20.1653 2.4832 20.811L9.49758 27.8254C9.8012 28.129 10.2559 28.3186 10.6736 28.3186C11.0912 28.3186 11.5074 28.1676 11.8496 27.8254C12.4938 27.1812 12.4938 26.1577 11.8496 25.512L5.97113 19.6737L11.8094 13.8355C12.4551 13.1897 12.4553 12.1289 11.8095 11.4832Z" fill="black"/>
<path d="M30.5027 27.8642L37.5171 20.8499C38.1614 20.2056 38.1614 19.1822 37.5171 18.5364L30.5027 11.4833C29.8584 10.8391 28.7965 10.8391 28.1893 11.4833C27.545 12.1276 27.545 13.151 28.1893 13.7968L34.029 19.6737L28.1908 25.512C27.5465 26.1562 27.5465 27.1796 28.1908 27.8254C28.4944 28.129 28.9491 28.3186 29.3668 28.3186C29.783 28.3186 30.1991 28.1664 30.5027 27.8642Z" fill="black"/>
<path d="M16.2472 28.2047C16.4752 28.3188 16.7018 28.3558 16.8914 28.3558C17.5357 28.3558 18.1429 27.9766 18.408 27.3694L24.55 13.3406C24.9291 12.5068 24.55 11.5204 23.7162 11.1797C22.8823 10.8006 21.8959 11.1797 21.5553 12.0136L15.4133 26.0423C15.0327 26.8777 15.4118 27.8256 16.2472 28.2047Z" fill="black"/>
</svg>
