<svg width="40" height="40" viewBox="0 0 40 40" fill="none" xmlns="http://www.w3.org/2000/svg">
<path d="M32.8988 36H7.10535C6.68032 36 6.26778 35.92 5.87901 35.7625C5.48522 35.6025 5.1352 35.3712 4.84017 35.075C4.5314 34.7625 4.30387 34.4012 4.16261 34C4.01885 33.6 3.96885 33.1762 4.01885 32.7462L6.12277 14.5662C6.20777 13.8274 6.5828 13.1524 7.17536 12.6674C7.73416 12.2074 8.45796 11.9524 9.20554 11.9524H12.5469C12.6569 10.2637 13.3295 7.28742 14.7596 5.98501C16.1647 4.705 18.0261 4 20.0001 4C21.9752 4 23.8352 4.70375 25.2405 5.98376C26.6719 7.28502 27.3431 10.2638 27.4532 11.9525H30.7946C32.3797 11.9525 33.7048 13.0762 33.8798 14.565V14.5662L35.9812 32.744C36.0737 33.5503 35.8225 34.3365 35.2711 34.9553C34.6798 35.6178 33.8148 35.999 32.8959 35.999L32.8988 36ZM9.20696 14.4148C9.03069 14.4148 8.85944 14.4723 8.7369 14.5723C8.6394 14.6523 8.57939 14.7498 8.56814 14.8498L6.46423 33.0289C6.50298 33.2376 6.53798 33.2914 6.58799 33.3401C6.64424 33.3977 6.7205 33.4477 6.80551 33.4814C6.89676 33.5189 7.00052 33.5389 7.10553 33.5389H32.899C33.1165 33.5389 33.3128 33.4589 33.4353 33.3202C33.5153 33.2302 33.5503 33.1314 33.5378 33.0289L31.4364 14.8499C31.4076 14.6099 31.1201 14.4148 30.7976 14.4148L9.20696 14.4148ZM15.0138 11.9536H24.9935C24.876 10.4798 24.2647 8.42234 23.5859 7.80602C21.7108 6.09976 18.2943 6.09976 16.4189 7.80602C15.7414 8.42353 15.1288 10.481 15.0138 11.9536Z" fill="black" stroke="black" stroke-width="0.3"/>
</svg>
