<svg width="40" height="40" viewBox="0 0 40 40" fill="none" xmlns="http://www.w3.org/2000/svg">
<path d="M34.7199 25.367L34.2685 24.969L36.4944 10.0755C36.664 8.93971 36.3315 7.79309 35.5697 6.92987C34.8035 6.06017 33.6983 5.56254 32.527 5.56254C31.4614 5.56254 30.4574 5.97143 29.7022 6.71348L25.6445 10.7007L23.3283 6.906C22.6127 5.73124 21.2983 5 19.9024 5C18.5043 5 17.1921 5.73124 16.4766 6.906L14.1604 10.7007L10.1027 6.71348C9.3475 5.97144 8.34349 5.56254 7.27788 5.56254C6.11099 5.56254 5.0013 6.06013 4.23515 6.92987C3.47999 7.79309 3.1409 8.93971 3.31044 10.0755L5.5584 24.9512L5.10265 25.3493C3.76621 26.5133 3 28.1748 3 29.9077C3 33.2697 5.77856 36 9.2 36H30.6182C34.0396 36 36.8182 33.2697 36.8182 29.9077C36.8182 28.1791 36.0564 26.5241 34.7332 25.3602L34.7199 25.367ZM5.5297 9.75528C5.45704 9.25119 5.59795 8.76439 5.93041 8.38147C6.24085 8.02666 6.70321 7.81034 7.19859 7.79517C7.67195 7.77353 8.16291 7.95526 8.4998 8.28195L13.9446 13.6322C14.2771 13.9589 14.8341 13.8918 15.0829 13.4937L18.4075 8.05049C18.7289 7.5291 19.2859 7.21973 19.9002 7.21973C20.5144 7.21973 21.0781 7.5291 21.3929 8.05049L24.7175 13.4937C24.9597 13.8918 25.5189 13.9589 25.8557 13.6322L31.3006 8.28195C31.6396 7.94877 32.1174 7.77137 32.6018 7.79517C33.0972 7.81247 33.5551 8.02882 33.8634 8.38147C34.1958 8.7644 34.3367 9.25117 34.2641 9.75528L32.1439 23.8218H7.65442L5.53419 9.75528H5.5297ZM30.6048 33.791H9.18657C7.01127 33.791 5.24111 32.0516 5.24111 29.9141C5.24111 27.7766 7.01127 26.0372 9.18657 26.0372H30.6048C32.78 26.0372 34.5502 27.7766 34.5502 29.9141C34.5502 32.0516 32.78 33.791 30.6048 33.791Z" fill="black"/>
</svg>
