<svg width="40" height="40" viewBox="0 0 40 40" fill="none" xmlns="http://www.w3.org/2000/svg">
<path d="M31.0195 6.81091L14.3808 4.0391C13.5338 3.90028 12.6744 4.13425 12.0192 4.6911C11.3657 5.24483 10.9897 6.0544 10.9897 6.91229V33.0878C10.9897 33.8989 11.3313 34.6804 11.9288 35.2294C12.4669 35.7255 13.1766 36 13.9051 36C13.9846 36 14.0642 35.9969 14.1437 35.9906L30.7824 34.6024C32.2798 34.4792 33.4512 33.2048 33.4512 31.7027L33.4528 9.68245C33.4528 8.25521 32.4311 7.04633 31.0195 6.80925L31.0195 6.81091ZM30.9571 31.701C30.9571 31.9163 30.7902 32.0972 30.5765 32.1159H30.5749L13.9379 33.5042C13.7788 33.498 13.6711 33.4402 13.6197 33.3935C13.5697 33.3482 13.4855 33.2468 13.4855 33.0877L13.4871 6.91063C13.4871 6.74373 13.5791 6.63922 13.6337 6.59399C13.6805 6.55343 13.7725 6.49416 13.9004 6.49416C13.9238 6.49416 13.9472 6.49572 13.9722 6.5004L30.6076 9.27065C30.8104 9.30496 30.957 9.4781 30.957 9.68242L30.9571 31.701Z" fill="black"/>
<path d="M7.24786 7.02614C6.5584 7.02614 6 7.58454 6 8.274V31.5668C6 32.2563 6.5584 32.8147 7.24786 32.8147C7.93732 32.8147 8.49572 32.2563 8.49572 31.5668V8.274C8.49572 7.58454 7.93732 7.02614 7.24786 7.02614Z" fill="black"/>
</svg>
