<svg width="80" height="34" viewBox="0 0 80 34" fill="none" xmlns="http://www.w3.org/2000/svg">
<path d="M33.7746 18.9064H34.6991V22.5485H34.7209L37.3157 18.9064H38.3455L36.0772 22.0438L38.535 26.4301H37.5053L35.475 22.808L34.6975 23.8711V26.4301H33.7729L33.7746 18.9064Z" fill="#010202"/>
<path d="M39.2881 18.9064H40.2126V26.4234H39.2881V18.9064Z" fill="#010202"/>
<path d="M41.6938 18.9064H42.8898L45.3694 25.182H45.3894V18.9064H46.314V26.4234H45.0437L42.6384 20.3378H42.6184V26.4234H41.6938V18.9064Z" fill="#010202"/>
<path d="M47.7964 18.9064H51.6724V19.7284H48.7259V22.0865H51.4978V22.9085H48.7259V25.6014H51.8043V26.4234H47.7964V18.9064Z" fill="#010202"/>
<path d="M56.1035 20.8535C56.1035 20.0641 55.8204 19.5175 54.9368 19.5175C54.1593 19.5175 53.6966 19.9386 53.6966 20.738C53.6966 22.8533 57.2369 21.5901 57.2369 24.3391C57.2369 26.0761 55.9666 26.5716 54.9026 26.5716C53.1521 26.5716 52.6343 25.6668 52.6343 24.0654H53.5588C53.5588 24.9075 53.6114 25.8199 54.9669 25.8199C55.1414 25.8258 55.3152 25.7948 55.4772 25.7304C55.6392 25.6651 55.7862 25.568 55.9081 25.4432C56.0309 25.3185 56.1261 25.1704 56.1879 25.0063C56.2505 24.8431 56.2781 24.6689 56.2697 24.494C56.2697 22.367 52.7295 23.5992 52.7295 20.8384C52.7295 20.1437 53.021 18.7633 54.9176 18.7633C56.3457 18.7633 56.998 19.4799 57.018 20.8585L56.1035 20.8535Z" fill="#010202"/>
<path d="M58.4346 18.9064H59.3591V26.4234H58.4346V18.9064Z" fill="#010202"/>
<path d="M64.0235 20.8535C64.0235 20.0641 63.7403 19.5175 62.8567 19.5175C62.0792 19.5175 61.6165 19.9386 61.6165 20.738C61.6165 22.8533 65.1568 21.5901 65.1568 24.3391C65.1568 26.0761 63.8865 26.5716 62.8225 26.5716C61.072 26.5716 60.5542 25.6668 60.5542 24.0654H61.4787C61.4787 24.9075 61.5313 25.8199 62.8868 25.8199C63.0614 25.8258 63.2351 25.7948 63.3971 25.7304C63.5591 25.6651 63.7061 25.568 63.828 25.4432C63.95 25.3185 64.046 25.1704 64.1078 25.0063C64.1696 24.8431 64.198 24.6689 64.1897 24.494C64.1897 22.367 60.6494 23.5992 60.6494 20.8384C60.6494 20.1437 60.9409 18.7633 62.8375 18.7633C64.2657 18.7633 64.9179 19.4799 64.938 20.8585L64.0235 20.8535Z" fill="#010202"/>
<path d="M0.00292969 6.84987C4.57795 4.54956 9.17302 2.28776 13.7547 0V16.5509H0.00292969V6.84987Z" fill="#9F5224"/>
<path d="M13.754 0C14.6819 0.448678 15.5998 0.920794 16.526 1.38035V16.5517H13.754C13.7532 11.0345 13.7532 5.51807 13.754 0Z" fill="#F18439"/>
<path d="M16.5249 6.05121C17.3158 5.82017 18.1117 5.60504 18.9026 5.37317C18.8834 9.09904 18.9026 12.8299 18.9026 16.5508H16.5249V6.05121Z" fill="#9F5224"/>
<path d="M18.9022 5.37317C19.6187 5.6469 20.3303 5.93318 21.0469 6.20691V16.5516H18.8955C18.8997 12.8241 18.8838 9.0982 18.9022 5.37317Z" fill="#F18439"/>
<path d="M22.8574 8.82377C23.944 8.62204 25.0322 8.42448 26.1179 8.21521V16.5492H24.5486V9.83664C23.9999 9.66672 23.4487 9.51353 22.8942 9.36704C22.8775 9.18623 22.8674 9.00458 22.8574 8.82377Z" fill="#9F5224"/>
<path d="M26.1147 8.21521C26.5783 8.39184 27.0409 8.57516 27.5003 8.76769V16.5492H26.1147V8.21521Z" fill="#F18439"/>
<path d="M21.0481 9.6658C21.6519 9.55949 22.2615 9.47997 22.8654 9.36194C22.8737 11.7585 22.8654 14.1551 22.8654 16.5508H21.0464C21.0464 14.2555 21.0472 11.9603 21.0481 9.6658Z" fill="#9F5224"/>
<path d="M22.8657 9.35693L22.8891 9.36447C23.4437 9.51096 23.9949 9.65661 24.5436 9.83407C24.5536 12.0724 24.5436 14.31 24.5436 16.5467H22.8691C22.8691 14.1543 22.8749 11.7577 22.8657 9.35693Z" fill="#F18439"/>
<path d="M11.1281 18.0074C12.2948 17.9823 13.4624 17.8542 14.6291 17.9388C18.1301 18.0819 21.6353 18.2225 25.1438 18.3615C25.6457 18.3849 26.1652 18.3481 26.6421 18.5239C26.3606 18.5733 26.08 18.6302 25.796 18.6629C21.7697 19.058 17.7451 19.474 13.7179 19.8607C9.14706 19.4204 4.57622 18.96 0.00537109 18.4804C3.70932 18.2686 7.41995 18.174 11.1281 18.0074Z" fill="#F6BC93"/>
<path d="M26.6427 18.523C26.9158 18.4895 27.1906 18.4711 27.4653 18.4678V21.3833C25.8359 21.7885 24.2032 22.1844 22.5738 22.5971C19.6215 23.3137 16.6734 24.0595 13.7202 24.771V19.8598C17.7482 19.474 21.7729 19.0571 25.7992 18.662C26.0815 18.6302 26.3612 18.5682 26.6427 18.523Z" fill="#F18439"/>
<path d="M0.00250539 18.4795C4.57335 18.9583 9.1442 19.4179 13.715 19.8598V24.771C10.7511 24.0662 7.79958 23.3019 4.83559 22.5879C3.23124 22.1769 1.61019 21.7927 0 21.3833C0.00167033 20.4148 0.00250539 19.4472 0.00250539 18.4795Z" fill="#9F5224"/>
<path d="M4.84019 22.5879C7.80419 23.3011 10.7557 24.0662 13.7155 24.771C16.6678 24.0545 19.6159 23.3086 22.569 22.5971C24.2085 22.8633 25.8554 23.0692 27.4965 23.3195C22.8998 24.9133 18.3222 26.564 13.7255 28.1562C9.16717 26.5088 4.57879 24.9292 0.00292969 23.3136C1.61646 23.0692 3.24002 22.8951 4.84019 22.5879Z" fill="#F6BC93"/>
<path d="M0.00292969 23.3129C4.57795 24.9209 9.1655 26.508 13.7288 28.1554C13.7021 29.8003 13.7288 31.4452 13.7155 33.09C9.13961 30.819 4.57461 28.5271 0.00292969 26.2519V23.3129Z" fill="#9F5224"/>
<path d="M13.7301 28.1553C18.3268 26.5631 22.9044 24.9124 27.5011 23.3186V26.199C22.9177 28.5177 18.311 30.7754 13.7176 33.0899C13.7268 31.445 13.7034 29.8002 13.7301 28.1553Z" fill="#F18439"/>
<path d="M36.9712 7.84843C35.6232 7.84843 34.1341 8.37161 33.8084 10.0826C33.8009 10.1136 33.7992 10.1462 33.8051 10.178C33.8101 10.2098 33.8218 10.24 33.8385 10.2676C33.8552 10.2952 33.8777 10.3187 33.9036 10.3371C33.9295 10.3555 33.9596 10.3689 33.9905 10.3756H34.0139L35.3969 10.5422C35.4604 10.5238 35.5163 10.4853 35.5556 10.4325C35.5957 10.3798 35.6174 10.3153 35.6182 10.25C35.67 9.98969 35.8153 9.75782 36.0266 9.59794C36.2379 9.43806 36.5002 9.36105 36.7632 9.38114C36.9152 9.37444 37.0656 9.40457 37.2034 9.46819C37.3412 9.53181 37.4614 9.62891 37.5541 9.74945C37.7153 10.0759 37.7796 10.4417 37.7395 10.8033V11.0051C36.8284 11.0436 35.9281 11.2118 35.0645 11.504C34.6027 11.7007 34.211 12.033 33.9412 12.4574C33.6715 12.8818 33.537 13.3782 33.5554 13.8813C33.5554 15.3989 34.5008 16.1548 35.6733 16.1548C36.1202 16.1816 36.5661 16.1004 36.9745 15.9163C37.3829 15.7329 37.7404 15.4525 38.0176 15.1001C38.2231 15.4609 38.4903 15.7815 38.8085 16.0477C38.8612 16.0761 38.9213 16.0879 38.9814 16.0803C39.0407 16.0736 39.0967 16.0477 39.1418 16.0083C39.4332 15.7463 39.9327 15.2776 40.2283 15.0306C40.2809 14.9779 40.3102 14.9067 40.3102 14.8322C40.3102 14.7577 40.2809 14.6866 40.2283 14.6338C39.8892 14.2672 39.6988 13.7876 39.6946 13.287V11.0838C39.6946 10.1362 39.7732 9.23381 39.0867 8.56749C38.4912 8.07863 37.7395 7.82248 36.9712 7.84843ZM55.5485 7.84843C54.2006 7.84843 52.7115 8.37161 52.3858 10.0826C52.3783 10.1136 52.3766 10.1462 52.3824 10.178C52.3875 10.2098 52.3991 10.24 52.4158 10.2676C52.4326 10.2952 52.4551 10.3187 52.481 10.3371C52.5069 10.3555 52.5369 10.3689 52.5678 10.3756H52.5912L53.9768 10.538C54.0436 10.5229 54.1037 10.4861 54.1471 10.4333C54.1906 10.3806 54.2156 10.3145 54.2173 10.2458C54.2699 9.98635 54.4144 9.75531 54.6249 9.59543C54.8353 9.43555 55.0967 9.35853 55.3598 9.37862C55.5118 9.37193 55.6621 9.40206 55.7999 9.46568C55.9377 9.53013 56.058 9.6264 56.1507 9.74694C56.3044 10.0768 56.3595 10.4434 56.311 10.8042V11.0059C55.4066 11.0444 54.5121 11.2127 53.6544 11.5048C53.1926 11.7015 52.8009 12.0339 52.5311 12.4583C52.2613 12.8827 52.1269 13.3791 52.1453 13.8821C52.1453 15.3998 53.0907 16.1557 54.2632 16.1557C54.71 16.1825 55.156 16.1013 55.5644 15.9171C55.9728 15.7338 56.3303 15.4534 56.6075 15.1009C56.8121 15.4617 57.0802 15.7823 57.3984 16.0485C57.451 16.077 57.5112 16.0887 57.5713 16.0812C57.6306 16.0745 57.6866 16.0485 57.7317 16.0092C58.0231 15.7472 58.5226 15.2784 58.8182 15.0315C58.8675 14.9771 58.895 14.9067 58.895 14.8331C58.895 14.7594 58.8675 14.6891 58.8182 14.6347C58.4791 14.268 58.2887 13.7884 58.2845 13.2878V11.0846C58.2845 10.137 58.3472 9.23464 57.6598 8.56832C57.0685 8.07612 56.3169 7.81913 55.5494 7.84759V7.84843H55.5485ZM45.0982 7.92293C44.6789 7.91372 44.268 8.04347 43.9306 8.29376C43.5932 8.54321 43.3477 8.89814 43.2324 9.30245V8.33478C43.2282 8.26697 43.199 8.20252 43.1506 8.1548C43.1021 8.10625 43.0386 8.07779 42.971 8.07277H41.6581C41.5871 8.07277 41.5186 8.09956 41.4669 8.14811C41.4151 8.19666 41.3834 8.26363 41.3783 8.33478V15.8175C41.385 15.8845 41.4151 15.9472 41.4627 15.9949C41.5103 16.0427 41.5729 16.072 41.6397 16.0795H43.0595C43.1313 16.0778 43.1998 16.0485 43.2508 15.9975C43.3017 15.9464 43.3309 15.8778 43.3326 15.8058V11.8438C43.3326 10.9766 43.2892 9.79717 44.3081 9.79717C45.3278 9.79717 45.1733 11.0176 45.1733 11.8438V15.8058C45.1775 15.8752 45.2059 15.9405 45.2535 15.9908C45.3011 16.041 45.3654 16.072 45.4339 16.0795H46.8528C46.9247 16.0778 46.9931 16.0485 47.0441 15.9975C47.095 15.9464 47.1243 15.8778 47.1259 15.8058V11.8438C47.0934 11.3659 47.1359 10.8854 47.2529 10.4208C47.3155 10.2467 47.4283 10.0943 47.5761 9.98384C47.7239 9.8725 47.9018 9.80805 48.0864 9.79717C48.2801 9.77289 48.4756 9.82563 48.6301 9.94533C48.7846 10.065 48.8856 10.2408 48.9115 10.435C48.9583 10.908 48.9716 11.3834 48.9508 11.8572V15.8192C48.9549 15.8886 48.9833 15.9539 49.0309 16.0042C49.0785 16.0544 49.1428 16.0854 49.2113 16.0929H50.6303C50.7021 16.0912 50.7706 16.0619 50.8215 16.0109C50.8725 15.9598 50.9017 15.8911 50.9034 15.8192V11.0612C50.9034 10.2684 50.9819 9.34598 50.5359 8.71147C50.3071 8.42351 50.0056 8.20252 49.6623 8.07026C49.3199 7.938 48.9483 7.89949 48.5858 7.95976C48.2233 8.0192 47.8834 8.17489 47.6011 8.40928C47.3189 8.6445 47.1034 8.95003 46.9781 9.29575C46.5405 8.36156 45.9859 7.92879 45.1007 7.92879L45.0982 7.92293ZM69.236 7.92293C67.1941 7.92293 66.0457 9.7302 66.0457 12.059C66.0457 14.3877 67.1715 16.2293 69.236 16.2293C71.2129 16.2293 72.4773 14.4103 72.4773 12.1251C72.4773 9.77289 71.3281 7.91707 69.2085 7.91707L69.236 7.92293ZM77.3304 7.92293C76.35 7.92293 75.7929 8.39839 75.3928 9.43638V8.29627C75.377 8.23851 75.3427 8.18661 75.2951 8.15062C75.2475 8.11379 75.1891 8.09453 75.1289 8.09453H73.8161C73.7501 8.09537 73.6874 8.11965 73.639 8.16401C73.5906 8.20838 73.5597 8.26865 73.5521 8.33394V15.81C73.5563 15.8794 73.5856 15.9456 73.634 15.9958C73.6824 16.046 73.7467 16.077 73.8161 16.0837H75.2358C75.3077 16.082 75.3761 16.0527 75.4271 16.0016C75.478 15.9506 75.5073 15.8819 75.5089 15.81V11.7861C75.4889 11.3006 75.5707 10.8151 75.7495 10.363C75.8071 10.2006 75.909 10.0575 76.0443 9.95119C76.1796 9.84488 76.3416 9.77875 76.5128 9.76033C77.4924 9.76033 77.3981 10.949 77.3981 11.7719V15.8367C77.4073 15.9012 77.4373 15.9598 77.4858 16.0042C77.5334 16.0485 77.5952 16.0745 77.6586 16.0778H79.0676C79.1344 16.077 79.1987 16.0519 79.248 16.0075C79.2981 15.9631 79.3315 15.9029 79.3398 15.8367V11.1357C79.3398 10.4049 79.3398 9.40457 78.9724 8.80606C78.8003 8.52396 78.5556 8.29292 78.265 8.13722C77.9735 7.98069 77.647 7.90535 77.3171 7.91707L77.3304 7.92293ZM60.2906 8.05017C60.2213 8.05017 60.1545 8.07779 60.106 8.12718C60.0568 8.17657 60.0292 8.2427 60.0292 8.31218V9.38532C60.0259 9.45396 60.0501 9.52093 60.096 9.57283C60.1419 9.62389 60.2062 9.65486 60.2747 9.65905H62.7209L59.9582 13.775C59.8246 13.9952 59.7569 14.2488 59.7611 14.5058V15.5948C59.7594 15.6358 59.7669 15.676 59.7853 15.7128C59.8029 15.7497 59.8296 15.7815 59.8622 15.8058C59.8956 15.83 59.934 15.8451 59.9741 15.8501C60.0142 15.8552 60.0559 15.8501 60.0935 15.8359C60.851 15.4316 61.6953 15.2206 62.5539 15.2206C63.4124 15.2206 64.2568 15.4316 65.0143 15.8359C65.0535 15.8518 65.0961 15.8568 65.1379 15.8526C65.1796 15.8476 65.2197 15.8334 65.2548 15.8091C65.2899 15.7857 65.3183 15.753 65.3375 15.7162C65.3567 15.6785 65.3667 15.6375 65.3667 15.5948V14.4606C65.3617 14.3777 65.335 14.2973 65.289 14.227C65.2431 14.1575 65.1796 14.1015 65.1053 14.0638C64.2877 13.6243 63.3648 13.4184 62.4386 13.4686L64.8598 9.90431C65.031 9.71597 65.1512 9.48744 65.2097 9.23883V8.33394C65.213 8.2653 65.1888 8.19833 65.1429 8.14643C65.097 8.09537 65.0327 8.0644 64.9642 8.06021H60.2964L60.2906 8.05017ZM69.2319 9.47238C69.4482 9.45982 69.662 9.52595 69.8348 9.65821C70.0069 9.79047 70.1263 9.98049 70.1697 10.1931C70.3301 10.841 70.3977 11.5073 70.371 12.1745C70.371 13.1221 70.3226 14.7217 69.2285 14.7217C68.1344 14.7217 68.1269 12.7404 68.1269 11.843C68.1269 10.9456 68.1754 9.46568 69.2018 9.46568L69.2319 9.47238ZM37.722 12.1862V12.4993C37.7763 13.0283 37.6861 13.5632 37.4606 14.0445C37.3737 14.2337 37.2368 14.3953 37.0647 14.5125C36.8927 14.6297 36.6922 14.6975 36.4851 14.7092C35.9398 14.7092 35.6199 14.2706 35.6199 13.636C35.604 12.408 36.7064 12.1904 37.7262 12.1904L37.722 12.1862ZM56.2994 12.1862V12.4993C56.3553 13.0308 56.2651 13.5682 56.0379 14.0521C55.9511 14.2413 55.8141 14.4036 55.6421 14.5208C55.47 14.638 55.2696 14.7058 55.0616 14.7176C54.5163 14.7176 54.1964 14.2789 54.1964 13.6444C54.1964 12.4047 55.2713 12.182 56.291 12.182L56.2994 12.1862Z" fill="#201D1E"/>
</svg>
