<svg width="56" height="34" viewBox="0 0 56 34" fill="none" xmlns="http://www.w3.org/2000/svg">
<path d="M15.5903 12.0161C15.5903 12.6969 15.6639 13.249 15.7927 13.6538C15.9399 14.0586 16.1239 14.5002 16.3815 14.9787C16.4736 15.1259 16.5104 15.2731 16.5104 15.4019C16.5104 15.5859 16.4 15.7699 16.1607 15.954L15.0014 16.7268C14.8358 16.8372 14.6702 16.8924 14.523 16.8924C14.339 16.8924 14.155 16.8004 13.971 16.6348C13.7134 16.3588 13.4925 16.0644 13.3085 15.7699C13.1245 15.4571 12.9405 15.1075 12.7381 14.6843C11.3028 16.3772 9.49945 17.2236 7.3281 17.2236C5.78239 17.2236 4.5495 16.782 3.64783 15.8987C2.74617 15.0155 2.28613 13.8378 2.28613 12.3657C2.28613 10.8016 2.83817 9.53189 3.96065 8.57502C5.08313 7.61815 6.57364 7.13972 8.46898 7.13972C9.09462 7.13972 9.73867 7.19492 10.4195 7.28693C11.1004 7.37893 11.7996 7.52614 12.5357 7.69175V6.34846C12.5357 4.94996 12.2413 3.97469 11.6708 3.40425C11.082 2.8338 10.0883 2.55778 8.67139 2.55778C8.02735 2.55778 7.3649 2.63139 6.68405 2.797C6.0032 2.96261 5.34075 3.16503 4.69671 3.42265C4.40229 3.55146 4.18147 3.62506 4.05266 3.66186C3.92385 3.69867 3.83184 3.71707 3.75824 3.71707C3.50062 3.71707 3.37181 3.53305 3.37181 3.14663V2.24496C3.37181 1.95054 3.40861 1.72972 3.50062 1.60092C3.59263 1.47211 3.75824 1.3433 4.01586 1.21449C4.6599 0.883264 5.43276 0.607244 6.33442 0.386428C7.23609 0.147211 8.19296 0.0368027 9.20503 0.0368027C11.3948 0.0368027 12.9957 0.533638 14.0262 1.52731C15.0383 2.52098 15.5535 4.02989 15.5535 6.05404V12.0161H15.5903ZM8.11935 14.8131C8.7266 14.8131 9.35224 14.7027 10.0147 14.4818C10.6771 14.261 11.266 13.8562 11.7628 13.3042C12.0572 12.9545 12.2781 12.5681 12.3885 12.1265C12.4989 11.6848 12.5725 11.1512 12.5725 10.5256V9.7527C12.0388 9.62389 11.4684 9.51349 10.8796 9.43988C10.2907 9.36628 9.72027 9.32947 9.14983 9.32947C7.91694 9.32947 7.01527 9.56869 6.40803 10.0655C5.80079 10.5624 5.50637 11.2616 5.50637 12.1817C5.50637 13.0465 5.72718 13.6906 6.18721 14.1322C6.62885 14.5923 7.27289 14.8131 8.11935 14.8131ZM22.8956 16.8004C22.5644 16.8004 22.3436 16.7452 22.1964 16.6164C22.0492 16.506 21.9203 16.2484 21.8099 15.8987L17.4856 1.67452C17.3752 1.30649 17.32 1.06728 17.32 0.938468C17.32 0.644046 17.4672 0.478435 17.7616 0.478435H19.565C19.9146 0.478435 20.1538 0.533638 20.2826 0.662448C20.4298 0.772856 20.5403 1.03047 20.6507 1.3801L23.7421 13.5618L26.6127 1.3801C26.7047 1.01207 26.8151 0.772856 26.9623 0.662448C27.1095 0.55204 27.3671 0.478435 27.6984 0.478435H29.1705C29.5201 0.478435 29.7593 0.533638 29.9065 0.662448C30.0537 0.772856 30.1825 1.03047 30.2562 1.3801L33.1636 13.709L36.347 1.3801C36.4574 1.01207 36.5862 0.772856 36.715 0.662448C36.8622 0.55204 37.1014 0.478435 37.4327 0.478435H39.144C39.4384 0.478435 39.604 0.625645 39.604 0.938468C39.604 1.03047 39.5856 1.12248 39.5672 1.23289C39.5488 1.3433 39.512 1.49051 39.4384 1.69292L35.0037 15.9171C34.8933 16.2852 34.7645 16.5244 34.6173 16.6348C34.4701 16.7452 34.2308 16.8188 33.918 16.8188H32.3355C31.9859 16.8188 31.7467 16.7636 31.5994 16.6348C31.4522 16.506 31.3234 16.2668 31.2498 15.8987L28.3976 4.02989L25.5638 15.8803C25.4718 16.2484 25.3614 16.4876 25.2142 16.6164C25.067 16.7452 24.8094 16.8004 24.4781 16.8004H22.8956ZM46.5413 17.2972C45.5845 17.2972 44.6276 17.1868 43.7075 16.966C42.7875 16.7452 42.0698 16.506 41.5914 16.23C41.2969 16.0644 41.0945 15.8803 41.0209 15.7147C40.9473 15.5491 40.9105 15.3651 40.9105 15.1995V14.261C40.9105 13.8746 41.0577 13.6906 41.3337 13.6906C41.4442 13.6906 41.5546 13.709 41.665 13.7458C41.7754 13.7826 41.941 13.8562 42.125 13.9298C42.7507 14.2058 43.4315 14.4266 44.1492 14.5739C44.8852 14.7211 45.6029 14.7947 46.3389 14.7947C47.4982 14.7947 48.3999 14.5923 49.0255 14.1874C49.6512 13.7826 49.9824 13.1938 49.9824 12.4393C49.9824 11.9241 49.8168 11.5008 49.4855 11.1512C49.1543 10.8016 48.5287 10.4888 47.627 10.1943L44.9588 9.36628C43.6155 8.94304 42.6218 8.3174 42.0146 7.48934C41.4074 6.67968 41.0945 5.77802 41.0945 4.82115C41.0945 4.04829 41.2601 3.36744 41.5914 2.7786C41.9226 2.18976 42.3642 1.67452 42.9163 1.26969C43.4683 0.846461 44.0939 0.533638 44.83 0.312823C45.5661 0.0920066 46.3389 0 47.1486 0C47.5534 0 47.9766 0.0184013 48.3815 0.0736053C48.8047 0.128809 49.1911 0.202415 49.5775 0.27602C49.9456 0.368027 50.2952 0.460033 50.6264 0.570441C50.9576 0.680849 51.2153 0.791257 51.3993 0.901665C51.6569 1.04888 51.8409 1.19609 51.9513 1.3617C52.0617 1.50891 52.1169 1.71132 52.1169 1.96894V2.8338C52.1169 3.22023 51.9697 3.42265 51.6937 3.42265C51.5465 3.42265 51.3073 3.34904 50.9944 3.20183C49.9456 2.7234 48.7679 2.48418 47.4614 2.48418C46.4125 2.48418 45.5845 2.64979 45.014 2.99942C44.4436 3.34904 44.1492 3.88268 44.1492 4.63713C44.1492 5.15237 44.3332 5.594 44.7012 5.94363C45.0692 6.29325 45.7501 6.64288 46.7253 6.9557L49.3383 7.78376C50.6632 8.20699 51.6201 8.79583 52.1905 9.55029C52.761 10.3047 53.037 11.1696 53.037 12.1265C53.037 12.9177 52.8714 13.6354 52.5586 14.261C52.2273 14.8867 51.7857 15.4387 51.2153 15.8803C50.6448 16.3404 49.964 16.6716 49.1727 16.9108C48.3447 17.1684 47.4798 17.2972 46.5413 17.2972Z" fill="#252F3E"/>
<path d="M50.0207 26.2404C43.9667 30.7119 35.1708 33.0857 27.6079 33.0857C17.0087 33.0857 7.45843 29.1662 0.245109 22.6521C-0.325332 22.1369 0.189905 21.4376 0.870754 21.8425C8.67292 26.3692 18.2968 29.111 28.2519 29.111C34.9684 29.111 42.3473 27.7125 49.1374 24.8419C50.1495 24.3818 51.0144 25.5043 50.0207 26.2404Z" fill="#FF9900"/>
<path d="M52.5418 23.3697C51.769 22.376 47.4262 22.8913 45.4573 23.1305C44.8685 23.2041 44.7765 22.6888 45.3101 22.3024C48.7695 19.8734 54.4556 20.5727 55.118 21.3823C55.7805 22.2104 54.934 27.8964 51.6954 30.6198C51.1985 31.043 50.7201 30.8222 50.9409 30.2702C51.677 28.4485 53.3147 24.345 52.5418 23.3697Z" fill="#FF9900"/>
</svg>
