<svg width="115" height="34" viewBox="0 0 115 34" fill="none" xmlns="http://www.w3.org/2000/svg">
<path d="M19.7506 31.3229C25.2356 30.3533 29.7658 29.551 29.8179 29.5399L29.9125 29.5198L24.7341 23.3562C21.886 19.9662 19.5557 17.1794 19.5557 17.1634C19.5557 17.133 24.9028 2.39833 24.9329 2.34587C24.943 2.32838 28.5818 8.61499 33.7538 17.5851C38.5958 25.983 42.5878 32.9071 42.625 32.972L42.6924 33.09L26.2351 33.0879L9.77787 33.0858L19.7506 31.3229ZM82.8623 29.8322C80.3572 29.6715 78.9002 28.2441 78.5141 25.5723C78.4114 24.8615 78.411 24.8431 78.4005 20.2289L78.3903 15.7632H79.499H80.6077L80.6164 20.0827C80.6243 23.9758 80.6293 24.4322 80.6664 24.7061C80.8174 25.8175 81.1179 26.565 81.6296 27.1015C82.039 27.5308 82.5184 27.7822 83.182 27.9156C83.495 27.9786 84.3856 27.9787 84.671 27.9159C85.3437 27.7678 85.8829 27.4748 86.3585 26.999C86.9006 26.4568 87.3017 25.6874 87.4957 24.8173L87.5611 24.5241L87.5684 20.168L87.5757 15.812H88.7076H89.8395V22.6598V29.5077H88.7193H87.599V28.4212C87.599 27.683 87.5909 27.3374 87.5738 27.3432C87.5599 27.3478 87.5024 27.4359 87.446 27.5389C87.0599 28.2434 86.4167 28.8877 85.7119 29.2758C84.8671 29.7411 84.0199 29.9065 82.8623 29.8322ZM108.289 29.8212C107.405 29.7547 106.474 29.4504 105.713 28.9793C104.109 27.9865 103.16 26.3498 102.882 24.0976C102.786 23.3182 102.774 22.2713 102.854 21.6091C103.034 20.1293 103.615 18.6767 104.442 17.6396C104.654 17.3738 105.136 16.8922 105.401 16.68C106.119 16.1068 106.958 15.706 107.849 15.5109C108.368 15.3973 109.282 15.344 109.834 15.3951C111.219 15.5236 112.489 16.1764 113.352 17.2038C114.229 18.2476 114.711 19.7062 114.772 21.5022C114.782 21.7837 114.784 22.2772 114.778 22.5989L114.765 23.1837L109.913 23.1899L105.06 23.196V23.4127C105.06 24.0723 105.221 24.8236 105.498 25.4629C105.737 26.0141 106.148 26.616 106.485 26.9073C107.175 27.5046 108.02 27.8621 108.945 27.9481C109.288 27.98 110.161 27.9464 110.552 27.8864C111.667 27.7149 112.727 27.2774 113.582 26.6353C113.683 26.5598 113.779 26.4892 113.797 26.4785C113.822 26.4628 113.827 26.6602 113.827 27.4898L113.826 28.5207L113.597 28.6626C112.629 29.2618 111.519 29.6465 110.345 29.7906C109.995 29.8335 108.709 29.8527 108.289 29.8212ZM112.513 21.1271C112.513 20.0221 112.047 18.7947 111.389 18.1627C110.919 17.7116 110.351 17.4359 109.675 17.3313C109.356 17.2817 108.682 17.3008 108.346 17.3689C107.633 17.5129 107.044 17.8262 106.531 18.3342C105.99 18.8688 105.585 19.5181 105.33 20.2579C105.238 20.524 105.131 20.9607 105.098 21.2037L105.082 21.3194H108.797H112.513V21.1271ZM46.6905 29.4772C46.6962 29.4604 48.344 25.1288 50.3522 19.8513L54.0036 10.2556H55.1768H56.35L56.4473 10.5054C56.7448 11.2688 63.7571 29.4869 63.7571 29.4963C63.7571 29.5025 63.1954 29.5075 62.509 29.5075L61.2609 29.5072L60.2502 26.8146L59.2395 24.122L55.1701 24.1219L51.1007 24.1219L51.0654 24.2133C51.0459 24.2635 50.6141 25.4751 50.1058 26.9057L49.1816 29.5067L47.9309 29.5072C46.9409 29.5075 46.6823 29.5013 46.6905 29.4772ZM58.4968 22.0671C58.4968 22.0629 57.8166 20.2178 56.9853 17.9669C55.4302 13.756 55.3432 13.5027 55.2203 12.8266C55.1627 12.5096 55.1335 12.5008 55.0993 12.7901C55.0749 12.9968 54.9689 13.4595 54.8872 13.7161C54.8466 13.8434 54.1463 15.7669 53.3309 17.9904C52.5155 20.214 51.8483 22.0426 51.8483 22.0541C51.8483 22.0655 53.3442 22.0749 55.1725 22.0749C57.0009 22.0749 58.4968 22.0714 58.4968 22.0671ZM64.512 29.157V28.8063L68.5664 23.229L72.6208 17.6518L68.95 17.6396L65.2792 17.6274L65.2728 16.6953L65.2664 15.7632H70.5757H75.8851V16.078V16.3928L71.8302 22.0005C69.6001 25.0847 67.7754 27.6133 67.7754 27.6197C67.7754 27.626 69.5782 27.6312 71.7815 27.6312H75.7876V28.5694V29.5077H70.1498H64.512V29.157ZM94.2637 29.4914C94.2548 29.4825 94.2475 26.39 94.2475 22.6192V15.7632H95.3556H96.4636V17.1766C96.4636 17.954 96.4731 18.59 96.4846 18.59C96.4962 18.59 96.5501 18.4628 96.6045 18.3073C96.8536 17.5946 97.2857 16.9286 97.8423 16.3994C98.3437 15.9226 98.9168 15.6375 99.593 15.5283C99.783 15.4977 99.9437 15.4918 100.324 15.5017C100.801 15.5142 101.05 15.5491 101.34 15.644L101.432 15.6739V16.8248V17.9757L101.17 17.8446C100.707 17.613 100.251 17.5213 99.7026 17.5498C99.3456 17.5684 99.1113 17.6143 98.8259 17.7215C98.2387 17.942 97.7624 18.3313 97.4295 18.8626C96.9477 19.6318 96.6041 20.6206 96.5027 21.5293C96.4845 21.6924 96.4738 23.0206 96.4695 25.639L96.4632 29.5077H95.3716C94.7712 29.5077 94.2727 29.5003 94.2637 29.4914ZM0 29.4433C0 29.4346 2.44002 25.1961 5.42227 20.0243L10.8445 10.6211L17.1636 5.31466C20.639 2.39609 23.492 0.00459487 23.5034 0.000113483C23.5148 -0.00412727 23.4691 0.111019 23.4018 0.256115C23.3345 0.401211 20.2468 7.02846 16.5402 14.9833L9.80104 29.4467L4.90052 29.4529C2.20523 29.4563 0 29.4519 0 29.4433Z" fill="#0089D6"/>
</svg>
