<svg width="139" height="34" viewBox="0 0 139 34" fill="none" xmlns="http://www.w3.org/2000/svg">
<path d="M56.4101 12.2751C60.5573 12.2751 61.4857 14.6837 61.4857 17.4632V20.2316H54.2586V20.8961C54.2864 22.4353 54.8423 23.0444 56.8103 23.0444C58.1527 23.0376 59.4867 22.8324 60.7686 22.4353L61.2745 24.8715C59.7485 25.4194 58.1378 25.6968 56.5157 25.6911C52.4518 25.6911 51.0397 23.814 51.0397 20.7078V17.3026C51.0397 14.5785 52.2628 12.2751 56.4101 12.2751ZM83.6619 12.2696C87.7258 12.2696 88.9266 13.6981 88.9266 16.9261L88.9155 25.4252H86.2581L86.0191 24.5504C84.8726 25.2935 83.5344 25.6897 82.1665 25.691C79.8037 25.691 78.7919 24.0742 78.7919 21.8539C78.7919 19.235 79.9372 18.2273 82.5667 18.2273H85.6744V16.8763C85.6744 15.4478 85.2741 14.9439 83.2005 14.9439C81.9941 14.9572 80.7933 15.0912 79.6147 15.3426L79.2144 12.8787C80.6632 12.48 82.1589 12.2752 83.6619 12.2696ZM105.204 12.2696C109.641 12.2696 110.836 14.7058 110.836 17.3525V20.6081C110.841 23.2548 109.641 25.691 105.204 25.691C100.757 25.691 99.5727 23.2548 99.5727 20.6081V17.3525C99.5727 14.7058 100.768 12.2696 105.204 12.2696ZM53.7583 7.79582V10.7359H48.8104V25.4252H45.4749L45.4637 10.7359H40.5215V7.79582H53.7583ZM96.4373 6.73822C97.3765 6.73508 98.3117 6.8599 99.2169 7.10925L98.8778 9.5953C98.2655 9.46413 97.6417 9.39366 97.0154 9.3849C95.7423 9.3849 95.5533 9.93859 95.5533 10.9186V12.5354H98.85L98.6665 15.1045H95.5589V25.4252H92.3178V15.1045H90.2442V12.5354H92.3178V10.7359C92.3178 8.06159 93.5686 6.73822 96.4373 6.73822ZM130.866 13.6483C132.484 12.823 134.26 12.3529 136.075 12.2696C138.227 12.2696 139 13.7756 139 16.079V25.4252H135.758V16.4278C135.758 15.7412 135.464 15.3979 134.724 15.3979C133.534 15.5286 132.385 15.9058 131.35 16.5053V25.4252H128.087V16.4278C128.087 15.7412 127.792 15.3979 127.053 15.3979C125.864 15.5386 124.718 15.9151 123.678 16.5053V25.4252H120.437V12.5354H122.911L123.228 13.6428C124.843 12.8288 126.612 12.3611 128.42 12.2696C129.445 12.1733 130.421 12.7236 130.866 13.6483ZM69.8192 12.2696L70.1527 15.2374C68.9589 15.774 67.8084 16.4015 66.7115 17.1144V25.4197H63.4704V12.5354H66.2056L66.4169 13.9639C67.4715 13.253 68.6154 12.6833 69.8192 12.2696ZM77.7468 12.2696L78.0692 15.2374C76.8791 15.7744 75.7324 16.4019 74.6391 17.1144V25.4197H71.398V12.5354H74.1332L74.3445 13.9639C75.3991 13.253 76.543 12.6833 77.7468 12.2696ZM118.858 12.2696L119.18 15.2374C117.99 15.7744 116.844 16.4019 115.75 17.1144V25.4197H112.509V12.5354H115.244L115.456 13.9639C116.51 13.2529 117.654 12.6832 118.858 12.2696ZM85.6744 20.5528H83.2839C82.222 20.5528 81.9274 20.8462 81.9274 21.8207C81.9274 22.7952 82.222 23.1163 83.2283 23.1163C84.0868 23.1033 84.9281 22.8748 85.6744 22.4519V20.5528ZM105.204 15.0214C103.475 15.0214 102.814 15.7911 102.814 17.2362V20.7023C102.814 22.1585 103.481 22.917 105.204 22.917C106.928 22.917 107.595 22.1474 107.595 20.7023V17.2473C107.595 15.7911 106.933 15.0214 105.204 15.0214ZM56.4379 14.9162C54.8423 14.9162 54.2864 15.7634 54.2864 16.9815V17.6348H58.4059V16.9815C58.4059 15.7634 58.0334 14.9162 56.4379 14.9162Z" fill="black"/>
<path d="M20.2363 21.5828L29.3536 16.3449V5.85254L20.2363 11.1015V21.5828Z" fill="#4040B2"/>
<path d="M10.118 5.85247L19.2353 11.1014V21.5827L10.118 16.3393M0 10.4868L9.11731 15.7303V5.24342L0 0M10.118 27.9778L19.2353 33.2212V22.7344L10.118 17.491" fill="#5C4EE5"/>
</svg>
