<svg width="64" height="34" viewBox="0 0 64 34" fill="none" xmlns="http://www.w3.org/2000/svg">
<g clip-path="url(#clip0_1231_1469)">
<path d="M58.4847 16.7166C58.4293 16.5987 58.4044 16.5394 58.3746 16.4827C57.5734 14.9645 56.7742 13.4462 55.9648 11.9279C55.8837 11.7757 55.894 11.6858 56.005 11.5545C57.2799 10.0711 58.5383 8.57952 59.8152 7.10228C59.8604 7.05017 59.9005 6.99497 59.9174 6.90203C59.5467 6.99826 59.1759 7.09346 58.8032 7.19132C57.2646 7.59756 55.7138 8.00175 54.1897 8.41415C54.0465 8.45251 53.9816 8.41086 53.9096 8.29228C53.0363 6.83761 52.1568 5.37884 51.2733 3.94263C51.2282 3.86734 51.1789 3.79429 51.0826 3.73131C51.0117 4.11908 50.94 4.5048 50.8704 4.89258C50.6253 6.26107 50.3802 7.62136 50.1372 8.99601C50.1106 9.14353 50.0744 9.29146 50.0616 9.43919C50.0495 9.58034 49.9763 9.63246 49.8474 9.67308C48.0329 10.2414 46.2225 10.8138 44.4101 11.3863C44.3306 11.4111 44.2525 11.4439 44.167 11.5209C45.65 12.1076 47.1329 12.6944 48.6364 13.2915C48.5816 13.3348 48.5453 13.3684 48.5052 13.3941C47.5784 13.9911 46.6495 14.5882 45.7247 15.1873C45.6137 15.2595 45.526 15.2698 45.4014 15.2137C44.2933 14.7172 43.177 14.2289 42.0648 13.7365C41.5664 13.5149 41.1195 13.2215 40.7714 12.7948C39.9826 11.8346 40.1391 10.7431 41.1895 10.066C41.5334 9.84645 41.9248 9.68437 42.314 9.55716C44.0915 8.98063 45.8771 8.42461 47.6484 7.86654C47.7979 7.81915 47.8667 7.75267 47.8955 7.59161C48.1344 6.22107 48.3795 4.84231 48.6288 3.48818C48.7614 2.75571 48.8314 2.00684 49.189 1.33387C49.3259 1.07536 49.4897 0.822996 49.6874 0.607566C50.3959 -0.17619 51.3824 -0.204914 52.1383 0.54027C52.3916 0.792631 52.6079 1.08808 52.7953 1.39378C53.6192 2.73356 54.4306 4.08153 55.2462 5.43567C55.342 5.59509 55.4281 5.62709 55.6046 5.58073C57.5921 5.04933 59.5796 4.52614 61.5774 4.00295C61.9894 3.89483 62.4033 3.85564 62.8256 3.93422C63.7421 4.10492 64.1437 4.80005 63.8327 5.68434C63.692 6.08647 63.4475 6.42501 63.1736 6.74713C61.7855 8.37414 60.3932 10.0094 59.0132 11.6302C58.8998 11.7632 58.8975 11.858 58.9762 12.0077C59.8082 13.5691 60.6321 15.1263 61.4683 16.7062C61.6662 17.0796 61.8184 17.4694 61.8225 17.8982C61.8322 18.8748 61.114 19.675 60.1398 19.8186C59.594 19.898 59.0874 19.7819 58.5745 19.6247C57.3285 19.2411 56.0824 18.8635 54.8261 18.4881C54.7101 18.4536 54.6658 18.4079 54.645 18.2837C54.5017 17.4076 54.3443 16.5336 54.1919 15.6575C54.188 15.6335 54.1952 15.6079 54.1993 15.5541C55.6225 15.946 57.0416 16.3317 58.5039 16.7359" fill="#E25A1C"/>
<path d="M49.3986 13.6811L48.9393 17.1767C48.7864 18.3385 48.6335 19.4977 48.48 20.6569L48.5163 20.6817C50.1125 18.9213 51.7086 17.1528 53.3357 15.3678L53.4636 16.1023L53.6339 17.0984C53.691 17.4308 53.7489 17.7632 53.8096 18.0945C53.8346 18.2283 53.7983 18.3099 53.7091 18.4043C52.6773 19.4794 51.6495 20.5586 50.6197 21.646C50.5746 21.6934 50.532 21.7423 50.4805 21.7985L50.5429 21.8997C50.5532 21.916 50.5636 21.932 50.5746 21.9474L52.3468 24.43L55.8884 29.3952C55.9205 29.4401 55.9671 29.4754 56.0066 29.5154L56.0065 29.5398L55.3388 29.5385C54.44 29.5364 53.5417 29.5336 52.6355 29.5375C52.4865 29.5375 52.4027 29.4951 52.3203 29.3691C50.9898 27.3502 49.6429 25.3272 48.3247 23.3165L48.264 23.2283C48.236 23.1885 48.2034 23.1427 48.1614 23.0826L47.6284 27.1224C47.5224 27.9247 47.4166 28.7249 47.3108 29.525H44.3656L44.4157 29.1026C44.4322 28.9634 44.449 28.8254 44.4671 28.6879C44.6818 27.0414 44.8988 25.4065 45.1156 23.7657L45.3321 22.1224C45.6081 20.0297 45.882 17.9369 46.1621 15.8442C46.1702 15.7824 46.212 15.703 46.2627 15.6702C47.276 15.0116 48.2934 14.3591 49.3109 13.7067C49.3255 13.6971 49.3463 13.6962 49.3986 13.6811ZM44.6724 17.6823L44.6854 17.7014L44.4166 19.7306C44.3868 19.9562 44.3569 20.1824 44.327 20.4097L43.3368 20.4085C43.1185 20.4085 42.901 20.4089 42.6835 20.4105C42.2427 20.4138 41.8411 20.6977 41.7072 21.1081C41.6558 21.2683 41.6366 21.4404 41.6139 21.6087L40.7901 27.8459C40.7209 28.3711 40.6542 28.8964 40.585 29.4298H37.8457L37.9651 28.487C37.9751 28.4093 37.9851 28.3318 37.9952 28.2542L38.2624 26.2271C38.3517 25.5521 38.4411 24.8791 38.5307 24.2123C38.686 23.0449 38.8252 21.8734 39.0085 20.7039C39.2536 19.1446 40.8107 17.7494 42.3863 17.6879C43.1401 17.655 43.896 17.6823 44.6724 17.6823ZM21.5057 18.2533C22.8815 19.1355 23.6683 20.4281 23.8536 22.0285C24.109 24.3059 23.2666 26.1935 21.6499 27.7733C20.583 28.8012 19.3019 29.4536 17.8396 29.6752C16.3498 29.8987 14.9473 29.6604 13.6885 28.809L13.6174 28.7602C13.5707 28.7273 13.52 28.6986 13.4397 28.6481L13.4207 28.6165L13.2306 30.0361L13.1695 30.498C13.0618 31.3145 12.9532 32.1332 12.8502 32.96C12.8383 33.0554 12.8092 33.0907 12.7063 33.0899C11.8968 33.0869 11.0874 33.0916 10.2759 33.0899C10.2574 33.0899 10.2389 33.0835 10.1954 33.0708L10.2929 32.2978C10.3092 32.169 10.3258 32.0402 10.3427 31.9116C10.5212 30.5575 10.699 29.2033 10.8802 27.8492C11.0882 26.2981 11.251 24.7511 11.5166 23.2123C11.9862 20.4835 14.3177 18.1446 17.0364 17.5496C18.6161 17.209 20.1258 17.3668 21.5057 18.2533ZM8.29317 13.18C9.56394 13.2258 10.5793 13.8181 11.362 14.8029C11.4783 14.9486 11.5911 15.0968 11.7044 15.2482L12.0437 15.7038L9.40453 17.6624C9.26303 17.4408 9.13678 17.2192 8.98849 17.012C8.60747 16.4806 8.13376 16.0846 7.44585 16.0375C6.87329 15.9972 6.3831 16.1848 5.99384 16.6058C5.64577 16.9812 5.60045 17.5167 5.92546 17.9414C6.28383 18.4092 6.67515 18.8524 7.07677 19.2853C7.26684 19.4905 7.45927 19.6933 7.65256 19.8953L8.23353 20.5005C8.52383 20.8033 8.81272 21.1078 9.09518 21.4191C9.69452 22.0757 10.1744 22.8102 10.3227 23.717C10.499 24.7839 10.285 25.7893 9.77896 26.7331C8.84185 28.4668 7.36924 29.4824 5.41262 29.7901C4.55171 29.9286 3.69492 29.9015 2.85872 29.6553C1.74448 29.3291 0.96801 28.6007 0.469588 27.5831C0.293492 27.2199 0.158589 26.8363 0 26.4464L2.88343 24.9097L2.93652 25.0408C2.94768 25.0678 2.9589 25.0936 2.97117 25.119C3.004 25.1842 3.03565 25.2503 3.06688 25.3166L3.16013 25.5161C3.25369 25.7154 3.35055 25.9126 3.47166 26.0935C4.07512 26.986 5.04725 27.2569 6.02556 26.8157C6.27889 26.7019 6.52398 26.5429 6.732 26.3582C7.36635 25.796 7.48581 25.0123 7.01622 24.3065C6.74641 23.9002 6.40864 23.535 6.0791 23.1719C5.29234 22.302 4.47262 21.4587 3.71057 20.5662C3.18125 19.9548 2.82082 19.2449 2.70549 18.4324C2.58088 17.5379 2.76027 16.6967 3.22656 15.9498C4.38612 14.0807 6.06881 13.1185 8.29317 13.18ZM17.3605 20.1245C15.6079 20.53 14.3421 21.8917 14.1538 23.6725L14.1476 23.7355C14.0116 25.0691 14.7325 26.3617 16.0712 26.8336C17.1505 27.2214 18.1926 27.0593 19.1606 26.4827C20.4396 25.7195 21.1317 24.5849 21.2202 22.9743H21.206C21.1609 22.7466 21.1288 22.4101 21.0266 22.0962C20.5323 20.58 18.9732 19.7572 17.3605 20.1245ZM33.5718 25.6247L33.5636 25.6415C33.4155 26.7679 33.2753 27.8369 33.1311 28.9038C33.123 28.9583 33.0804 29.032 33.0345 29.0529C30.8307 30.0665 27.9473 29.9249 26.1554 27.8855C25.1874 26.7899 24.7817 25.485 24.8414 24.0488C24.9821 20.7045 27.766 17.7705 31.1026 17.3602C33.0489 17.1222 34.7481 17.6454 36.0662 19.1534C36.9642 20.1793 37.3802 21.4103 37.3184 22.7644C37.2816 23.5844 37.1602 24.3993 37.0544 25.2105L37.026 25.4317C36.8674 26.6914 36.6944 27.9553 36.5276 29.2068L36.5188 29.2607C36.5138 29.2886 36.5081 29.3185 36.5018 29.3527H33.8861L33.9542 28.7805C33.9658 28.6859 33.9776 28.5915 33.9899 28.4971C34.1798 27.0425 34.3895 25.5837 34.5563 24.127C34.6601 23.2201 34.5948 22.3194 34.1774 21.4802C33.7345 20.5878 32.9931 20.1138 32.0148 20.0112C29.9923 19.7978 28.0604 21.1971 27.6484 23.1709C27.3642 24.4799 27.8126 25.7355 28.8595 26.4331C29.879 27.1081 30.9603 27.1102 32.0724 26.6731C32.6368 26.4516 33.1146 26.0987 33.5718 25.6247Z" fill="#3C3A3E"/>
<path d="M15.7069 13.7621H16.3845L16.2243 12.7404L15.7069 13.7621ZM16.4924 14.4228H15.365L15.0066 15.1224H14.2075L15.9685 11.8397H16.7388L17.3381 15.1224H16.5987L16.4924 14.4228ZM20.5264 12.5106H20.1247L19.9896 13.2676H20.3913C20.6343 13.2676 20.8258 13.109 20.8258 12.8101C20.8258 12.6216 20.7164 12.5205 20.5504 12.5113L20.5264 12.5106ZM19.5501 11.8438L20.6087 11.8499C21.1607 11.8499 21.5459 12.1782 21.5459 12.7404C21.5459 13.4503 21.0433 13.9262 20.3266 13.9262H19.8714L19.6572 15.1265H18.9693L19.5501 11.8438ZM23.8835 13.7621H24.5611L24.4011 12.7404L23.8835 13.7621ZM24.667 14.4228H23.5396L23.1812 15.1224H22.3821L24.143 11.8397H24.9133L25.5126 15.1224H24.7732L24.667 14.4228ZM29.0337 15.0124L29.0325 15.0137C28.7998 15.1195 28.5444 15.1827 28.2869 15.1827C27.4157 15.1827 26.8699 14.5323 26.8699 13.7178C26.8699 12.6755 27.7494 11.7994 28.7956 11.7994C29.0572 11.7994 29.2941 11.862 29.4877 11.9677L29.3911 12.7535C29.2463 12.5941 29.0121 12.4827 28.7238 12.4827C28.1244 12.4827 27.591 13.0223 27.591 13.648C27.591 14.124 27.8917 14.4974 28.3654 14.4974C28.6558 14.4974 28.9359 14.386 29.1254 14.2328L29.0337 15.0124ZM33.3597 13.8031H31.9262L31.6935 15.1224H31.0076L31.5885 11.8397H32.2764L32.0457 13.1363H33.4771L33.7098 11.8397H34.3977L33.8169 15.1224H33.129L33.3597 13.8031ZM35.8302 15.1121L36.41 11.8335H38.2348L38.1188 12.4941H36.9819L36.866 13.1302H37.9102L37.7942 13.7908H36.75L36.6341 14.4515H37.7709L37.655 15.1121H35.8302Z" fill="#3C3A3E"/>
</g>
<defs>
<clipPath id="clip0_1231_1469">
<rect width="63.9366" height="33.09" fill="white"/>
</clipPath>
</defs>
</svg>
