<svg width="176" height="27" viewBox="0 0 176 27" fill="none" xmlns="http://www.w3.org/2000/svg">
<g clip-path="url(#clip0_1231_1450)">
<path d="M25.534 19.9929V15.2357L25.0246 14.9143L12.7988 21.6643L1.20984 15.2357V12.4714L12.7988 18.8357L25.5977 11.8286V7.13571L25.0883 6.81429L12.7988 13.6286L1.65557 7.45714L12.7988 1.28571L21.7771 6.23571L22.4776 5.85V5.33571L12.7988 0L0 7.00714V7.71429L12.7988 14.7857L24.3878 8.35714V11.1857L12.7988 17.6143L0.509407 10.8L0 11.1214V15.8786L12.7988 22.8857L24.3878 16.5214V19.2857L12.7988 25.7143L0.509407 18.9643L0 19.2857V19.9929L12.7988 27L25.534 19.9929Z" fill="#FF3621"/>
<path fill-rule="evenodd" clip-rule="evenodd" d="M49.8581 1.41431V23.0786H46.4196V21.4715C46.4196 21.3429 46.3559 21.2143 46.2285 21.2143C46.1012 21.15 45.9738 21.2143 45.9102 21.2786C44.7003 22.6286 42.9174 23.4643 40.9434 23.4643C38.9058 23.4643 36.9955 22.6286 35.5947 21.2143C34.1938 19.7357 33.4297 17.7429 33.4297 15.5572C33.4297 11.1215 36.7408 7.65002 40.9434 7.65002C42.9174 7.65002 44.764 8.42145 45.9102 9.70716C45.9738 9.77145 46.1012 9.83574 46.2285 9.77145C46.3559 9.70716 46.4196 9.64288 46.4196 9.51431V1.41431H49.8581ZM36.8682 15.5572C36.8682 18.3215 38.9695 20.4429 41.7075 20.4429C44.4456 20.4429 46.5469 18.3215 46.5469 15.5572C46.5469 12.7929 44.4456 10.6715 41.7075 10.6715C39.0332 10.6715 36.8682 12.7929 36.8682 15.5572Z" fill="#1B3139"/>
<path fill-rule="evenodd" clip-rule="evenodd" d="M68.0693 7.97145V23.0786H64.6945V21.4715C64.6945 21.3429 64.6308 21.2143 64.5034 21.2143C64.3761 21.15 64.2487 21.2143 64.1851 21.2786C62.9752 22.6929 61.1923 23.4643 59.2183 23.4643C55.0157 23.4643 51.7046 19.9929 51.7046 15.5572C51.7046 11.1215 55.0157 7.65002 59.2183 7.65002C61.256 7.65002 63.0389 8.35717 64.1851 9.70717C64.2487 9.77145 64.3761 9.83574 64.5034 9.77145C64.6308 9.70717 64.6945 9.64288 64.6945 9.51431V7.97145H68.0693ZM55.1431 15.5572C55.1431 18.3215 57.2444 20.4429 59.9824 20.4429C62.7205 20.4429 64.8218 18.3215 64.8218 15.5572C64.8218 12.7929 62.7205 10.6715 59.9824 10.6715C57.3081 10.6715 55.1431 12.7929 55.1431 15.5572Z" fill="#1B3139"/>
<path fill-rule="evenodd" clip-rule="evenodd" d="M97.0419 7.97145V23.0786H93.6671V21.4715C93.6671 21.3429 93.6034 21.2143 93.4761 21.2143C93.3487 21.15 93.2214 21.2143 93.1577 21.2786C91.9479 22.6929 90.1649 23.4643 88.191 23.4643C83.9884 23.4643 80.6772 19.9929 80.6772 15.5572C80.6772 11.1215 83.9884 7.65002 88.191 7.65002C90.2286 7.65002 92.0115 8.35717 93.1577 9.70717C93.2214 9.77145 93.3487 9.83574 93.4761 9.77145C93.6034 9.70717 93.6671 9.64288 93.6671 9.51431V7.97145H97.0419ZM84.1157 15.5572C84.1157 18.3215 86.217 20.4429 88.9551 20.4429C91.6932 20.4429 93.7945 18.3215 93.7945 15.5572C93.7945 12.7929 91.6932 10.6715 88.9551 10.6715C86.217 10.6715 84.1157 12.7929 84.1157 15.5572Z" fill="#1B3139"/>
<path fill-rule="evenodd" clip-rule="evenodd" d="M103.41 21.2786C103.346 21.2786 103.346 21.2786 103.282 21.2786C103.155 21.3429 103.091 21.4072 103.091 21.5357V23.0786H99.6528V1.41431H103.091V9.57859C103.091 9.70716 103.155 9.83574 103.282 9.83574C103.41 9.90002 103.537 9.83574 103.601 9.77145C104.811 8.42145 106.593 7.58574 108.567 7.58574C110.605 7.58574 112.515 8.42145 113.916 9.83574C115.317 11.3143 116.081 13.3072 116.081 15.4929C116.081 19.9286 112.77 23.4 108.567 23.4C106.593 23.4 104.747 22.6286 103.601 21.3429C103.537 21.3429 103.473 21.2786 103.41 21.2786ZM107.803 10.6715C105.065 10.6715 102.964 12.7929 102.964 15.5572C102.964 18.3215 105.065 20.4429 107.803 20.4429C110.541 20.4429 112.643 18.3215 112.643 15.5572C112.643 12.7929 110.478 10.6715 107.803 10.6715Z" fill="#1B3139"/>
<path d="M125.951 11.0572C126.269 11.0572 126.588 11.0572 126.779 11.1215V7.71431C126.651 7.71431 126.46 7.65002 126.206 7.65002C124.423 7.65002 122.767 8.55002 121.939 9.96431C121.876 10.0929 121.748 10.1572 121.621 10.0929C121.494 10.0286 121.43 9.96431 121.43 9.83574V7.97145H118.055V23.0786H121.494V16.4572C121.366 13.1143 123.149 11.0572 125.951 11.0572Z" fill="#1B3139"/>
<path d="M132.318 7.97144H128.88V23.0786H132.318V7.97144Z" fill="#1B3139"/>
<path d="M130.599 1.41431C129.453 1.41431 128.498 2.31431 128.498 3.47145C128.498 4.62859 129.453 5.52859 130.599 5.52859C131.746 5.52859 132.701 4.62859 132.701 3.47145C132.701 2.37859 131.746 1.41431 130.599 1.41431Z" fill="#1B3139"/>
<path d="M142.506 7.65002C137.794 7.65002 134.356 10.9929 134.356 15.5572C134.356 17.8072 135.184 19.8 136.648 21.2143C138.113 22.6286 140.214 23.4643 142.506 23.4643C144.417 23.4643 145.945 23.0786 148.747 21.0857L146.836 19.0929C145.436 19.9929 144.162 20.4429 142.889 20.4429C140.023 20.4429 137.858 18.3215 137.858 15.5572C137.858 12.7929 140.023 10.6715 142.889 10.6715C144.226 10.6715 145.499 11.1215 146.773 12.0215L148.938 10.0286C146.327 7.84288 144.035 7.65002 142.506 7.65002Z" fill="#1B3139"/>
<path d="M154.668 16.4572C154.732 16.3929 154.796 16.3929 154.859 16.3929C154.923 16.3929 154.987 16.4572 155.05 16.5214L160.527 23.1429H164.729L157.661 14.7857C157.534 14.6572 157.598 14.5286 157.661 14.4L164.156 8.03574H160.017L154.414 13.5C154.35 13.5643 154.223 13.6286 154.095 13.5643C153.968 13.5 153.904 13.4357 153.904 13.3072V1.41431H150.466V23.0786H153.904V17.2286C153.904 17.1643 153.968 17.1 153.968 17.0357L154.668 16.4572Z" fill="#1B3139"/>
<path d="M170.396 23.4643C173.198 23.4643 176.064 21.7929 176.064 18.6429C176.064 16.5857 174.726 15.1715 171.988 14.2715L170.142 13.6929C168.868 13.3072 168.295 12.7286 168.295 11.8929C168.295 10.9929 169.123 10.35 170.333 10.35C171.479 10.35 172.498 11.0572 173.135 12.3429L175.873 10.9286C174.854 8.87145 172.752 7.65002 170.333 7.65002C167.276 7.65002 165.048 9.5786 165.048 12.2143C165.048 14.3357 166.321 15.75 168.932 16.5215L170.842 17.1C172.179 17.4857 172.752 18 172.752 18.9C172.752 20.1857 171.543 20.6357 170.524 20.6357C169.123 20.6357 167.913 19.7357 167.276 18.3215L164.475 19.7357C165.366 22.05 167.658 23.4643 170.396 23.4643Z" fill="#1B3139"/>
<path d="M77.5574 23.3358C78.6399 23.3358 79.595 23.2715 80.1681 23.1429V20.25C79.7224 20.3143 78.9583 20.3786 78.4489 20.3786C77.048 20.3786 76.0292 20.1215 76.0292 17.2286V11.0572C76.0292 10.9286 76.1565 10.8 76.3476 10.8H79.6587V8.10004H76.3476C76.1565 8.10004 76.0292 7.97147 76.0292 7.8429V3.3429H72.6544V7.71432C72.6544 7.8429 72.527 7.97147 72.336 7.97147H69.98V10.6715H72.336C72.527 10.6715 72.6544 10.8 72.6544 10.9286V17.9358C72.5907 23.3358 76.2202 23.3358 77.5574 23.3358Z" fill="#1B3139"/>
</g>
<defs>
<clipPath id="clip0_1231_1450">
<rect width="176" height="27" fill="white"/>
</clipPath>
</defs>
</svg>
